# xmcd
#
# Track frame offsets: 
#        150
#        22575
#        45600
#        64350
#        85181
#        103331
#        126244
#        149419
#        171469
#        193069
#        217359
#        239709
#
# Disc length: 3304 seconds
#
# Revision: 0
# Processed by: cddbd v1.5.2PL0 Copyright (c) Steve Scherf et al.
# Submitted via: ExactAudioCopy v1.3
#
DISCID=be0ce60c
DTITLE=Serko's Circuit - Live at Your Living Room-2nd Set
DYEAR=2019
DGENRE=Blues
TTITLE0=Broke and Hungry
TTITLE1=Born in Chicago
TTITLE2=Treat Me Like a Dog I Am
TTITLE3=Elephant
TTITLE4=River Hip Mama
TTITLE5=Take Good Care of My Heart
TTITLE6=Ain´T Doin´Too Bad
TTITLE7=Honest I Do
TTITLE8=Hey, Miss Bessie
TTITLE9=Slow Down
TTITLE10=Drinking Beer
TTITLE11=Pa´S Shoe
EXTD=
EXTT0=
EXTT1=
EXTT2=
EXTT3=
EXTT4=
EXTT5=
EXTT6=
EXTT7=
EXTT8=
EXTT9=
EXTT10=
EXTT11=
PLAYORDER=
